<svg width="16" height="17" viewBox="0 0 16 17" fill="none" xmlns="http://www.w3.org/2000/svg">
<path d="M1.33333 1.83332H0V15.1667H1.33333V1.83332Z" fill="white"/>
<path d="M1.33337 0.5L1.33333 1.83332L4.00002 1.83333V0.5H1.33337Z" fill="white"/>
<path d="M4.00002 1.83333L4 3.16668L6.66668 3.16666L6.6667 1.83334L4.00002 1.83333Z" fill="white"/>
<path d="M6.66668 3.16666V4.49999L9.33337 4.5L9.33333 3.16666H6.66668Z" fill="white"/>
<path d="M9.33337 4.5V5.83333L12 5.83334L12 4.5H9.33337Z" fill="white"/>
<path d="M12 5.83334V7.16668L14.6667 7.16666L14.6667 5.83334H12Z" fill="white"/>
<path d="M14.6667 9.83334H16V7.16666H14.6667V9.83334Z" fill="white"/>
<path d="M12 9.83332V11.1667H14.6667L14.6667 9.83334L12 9.83332Z" fill="white"/>
<path d="M9.33337 11.1667V12.5H12L12 11.1667L9.33337 11.1667Z" fill="white"/>
<path d="M6.66668 12.5V13.8333H9.33333L9.33337 12.5L6.66668 12.5Z" fill="white"/>
<path d="M4 13.8333L4.00002 15.1667L6.6667 15.1667L6.66668 13.8333L4 13.8333Z" fill="white"/>
<path d="M1.33333 15.1667L1.33337 16.5H4.00002V15.1667L1.33333 15.1667Z" fill="white"/>
</svg>
