<svg width="15" height="17" viewBox="0 0 15 17" fill="none" xmlns="http://www.w3.org/2000/svg">
<g clip-path="url(#clip0_4185_966)">
<path d="M11.6375 14.7579V15.8798H9.39494V14.7579H11.6375V13.6372H12.7585V14.7579H11.6375Z" fill="white"/>
<path d="M12.7585 5.78931H13.8793V8.03134H12.7585V5.78931Z" fill="white"/>
<path d="M12.7585 11.3947H13.8793V13.6372H12.7585V11.3947Z" fill="white"/>
<path d="M13.8793 8.03137H15V11.3947H13.8793V8.03137Z" fill="white"/>
<path d="M6.03157 15.8799H9.3949V17.0003H6.03157V15.8799Z" fill="white"/>
<path d="M11.6375 4.66798H12.7585V5.78927H11.6375V4.66798H9.39494V3.54724H11.6375V4.66798Z" fill="white"/>
<path d="M3.78903 14.7579H6.03162V15.8798H3.78903V14.7579H2.66829V13.6372H3.78903V14.7579Z" fill="white"/>
<path d="M1.5476 6.91064H2.66833V8.03138H1.5476V6.91064Z" fill="white"/>
<path d="M1.5476 11.3947H2.66833V13.6372H1.5476V11.3947Z" fill="white"/>
<path d="M0.425628 8.03137H1.54749V11.3947H0.425628V8.03137Z" fill="white"/>
<path d="M7.15259 5.60591H6.03157V4.48518H4.91084V3.36389H3.78898V2.24259H4.91084V1.12186H6.03157V0H7.15259V2.42625H9.3949V3.54726H7.15259V5.60591Z" fill="white"/>
</g>
<defs>
<clipPath id="clip0_4185_966">
<rect width="14.5743" height="17" fill="white" transform="matrix(-1 0 0 1 15 0)"/>
</clipPath>
</defs>
</svg>
