<svg xmlns="http://www.w3.org/2000/svg" width="44" height="44" viewBox="0 0 44 44" fill="none">
  <path d="M16.5 25.6666H18.3333V27.5H16.5V25.6666Z" fill="white"/>
  <path d="M27.5 25.6666H25.6666V27.5H27.5V25.6666Z" fill="white"/>
  <path d="M16.5 16.5H18.3333V18.3333H16.5V16.5Z" fill="white"/>
  <path d="M27.5 16.5H25.6666V18.3333H27.5V16.5Z" fill="white"/>
  <path d="M18.3333 18.3333H20.1666V20.1666H18.3333V18.3333Z" fill="white"/>
  <path d="M25.6666 18.3333H23.8333V20.1666H25.6666V18.3333Z" fill="white"/>
  <path d="M14.6666 18.3333H16.5V20.1666H14.6666V18.3333Z" fill="white"/>
  <path d="M29.3333 18.3333H27.5V20.1666H29.3333V18.3333Z" fill="white"/>
  <path d="M16.5 33V34.8333H27.5V33H16.5Z" fill="white"/>
  <path d="M25.6666 29.3333V27.5H18.3333V29.3333H25.6666Z" fill="white"/>
  <path d="M12.8333 31.1666V33H16.5V31.1666H12.8333Z" fill="white"/>
  <path d="M12.8333 27.5H11V31.1666H12.8333V27.5Z" fill="white"/>
  <path d="M9.16663 27.5H11V16.5H9.16663V27.5Z" fill="white"/>
  <path d="M11 16.5H12.8333V12.8333H11L11 16.5Z" fill="white"/>
  <path d="M12.8333 11V12.8333H16.5V11H12.8333Z" fill="white"/>
  <path d="M16.5 9.16663V11H27.5V9.16663H16.5Z" fill="white"/>
  <path d="M31.1666 12.8333V11H27.5V12.8333H31.1666Z" fill="white"/>
  <path d="M31.1666 16.5H33V12.8333H31.1666V16.5Z" fill="white"/>
  <path d="M33 27.5H34.8333V16.5H33V27.5Z" fill="white"/>
  <path d="M33 27.5H31.1666V31.1666H33V27.5Z" fill="white"/>
  <path d="M31.1666 33V31.1666H27.5V33H31.1666Z" fill="white"/>
</svg>