<svg width="122" height="31" viewBox="0 0 122 31" fill="none" xmlns="http://www.w3.org/2000/svg">
<path d="M2.09961 11.2803C2.09961 10.5885 2.09147 9.98633 2.0752 9.47363C2.05892 8.9528 2.03451 8.50521 2.00195 8.13086C1.9694 7.74837 1.92871 7.43099 1.87988 7.17871C1.83919 6.92643 1.79443 6.71484 1.74561 6.54395V6.49512C1.90837 6.50326 2.07926 6.50732 2.2583 6.50732C2.41292 6.51546 2.58382 6.51953 2.771 6.51953C2.96631 6.51953 3.16569 6.51953 3.36914 6.51953C3.66211 6.51953 4.0568 6.49105 4.55322 6.43408C5.05778 6.37712 5.70475 6.34863 6.49414 6.34863C7.22656 6.34863 7.90202 6.44629 8.52051 6.6416C9.139 6.82878 9.67204 7.1014 10.1196 7.45947C10.5754 7.81755 10.9294 8.26107 11.1816 8.79004C11.4421 9.31087 11.5723 9.90495 11.5723 10.5723C11.5723 11.1338 11.495 11.6383 11.3403 12.0859C11.1857 12.5254 10.966 12.9119 10.6812 13.2456C10.4045 13.5711 10.0667 13.8478 9.66797 14.0757C9.27734 14.2954 8.84603 14.4704 8.37402 14.6006C9.06576 14.7064 9.69645 14.8854 10.2661 15.1377C10.8358 15.3818 11.3241 15.6911 11.731 16.0654C12.146 16.4398 12.4634 16.8792 12.6831 17.3838C12.911 17.8802 13.0249 18.4336 13.0249 19.0439C13.0249 20.7611 12.4593 22.0509 11.3281 22.9136C10.1969 23.7681 8.50423 24.1953 6.25 24.1953C6.00586 24.1953 5.72103 24.1831 5.39551 24.1587C5.06999 24.1424 4.73633 24.1221 4.39453 24.0977C4.06087 24.0732 3.73128 24.0488 3.40576 24.0244C3.08024 24.0081 2.79541 24 2.55127 24H1.74561V23.9512C1.79443 23.7803 1.83919 23.5687 1.87988 23.3164C1.92871 23.0641 1.9694 22.7508 2.00195 22.3765C2.03451 22.0021 2.05892 21.5586 2.0752 21.0459C2.09147 20.5251 2.09961 19.9188 2.09961 19.2271V11.2803ZM6.57959 15.3452C6.0262 15.3452 5.56234 15.3656 5.18799 15.4062C4.81364 15.4469 4.52474 15.4876 4.32129 15.5283V19.2271C4.32129 20.1792 4.33757 20.9645 4.37012 21.583C4.40267 22.2015 4.44743 22.7061 4.50439 23.0967C4.81364 23.1374 5.12288 23.174 5.43213 23.2065C5.74137 23.2391 5.98958 23.2554 6.17676 23.2554C7.69857 23.2554 8.80941 22.9176 9.50928 22.2422C10.2173 21.5586 10.5713 20.5129 10.5713 19.105C10.5713 18.5516 10.4858 18.047 10.3149 17.5913C10.1522 17.1274 9.90397 16.7287 9.57031 16.395C9.24479 16.0614 8.82975 15.805 8.3252 15.626C7.82878 15.4388 7.24691 15.3452 6.57959 15.3452ZM4.32129 14.4297C4.54915 14.4541 4.7526 14.4704 4.93164 14.4785C5.11068 14.4785 5.30192 14.4785 5.50537 14.4785C6.05876 14.4785 6.56331 14.4012 7.01904 14.2466C7.47477 14.0838 7.86133 13.8438 8.17871 13.5264C8.50423 13.209 8.75651 12.8143 8.93555 12.3423C9.11458 11.8621 9.2041 11.3047 9.2041 10.6699C9.2041 10.141 9.139 9.66081 9.00879 9.22949C8.87858 8.79818 8.68327 8.43197 8.42285 8.13086C8.17057 7.82161 7.85726 7.58561 7.48291 7.42285C7.10856 7.26009 6.68132 7.17871 6.20117 7.17871C5.89193 7.17871 5.6193 7.19092 5.3833 7.21533C5.15544 7.23975 4.96012 7.26823 4.79736 7.30078C4.61019 7.33333 4.4515 7.37402 4.32129 7.42285V14.4297ZM14.8926 17.7256C14.8926 16.806 15.0635 15.9556 15.4053 15.1743C15.7471 14.3849 16.215 13.7013 16.8091 13.1235C17.4113 12.5457 18.1193 12.0941 18.9331 11.7686C19.7469 11.443 20.6217 11.2803 21.5576 11.2803C22.4772 11.2803 23.3398 11.4349 24.1455 11.7441C24.9593 12.0452 25.6673 12.4766 26.2695 13.0381C26.8717 13.5996 27.3438 14.2832 27.6855 15.0889C28.0355 15.8945 28.2104 16.7979 28.2104 17.7988C28.2104 18.637 28.064 19.4427 27.771 20.2158C27.478 20.9889 27.0467 21.6725 26.4771 22.2666C25.9074 22.8607 25.2075 23.3368 24.3774 23.6948C23.5555 24.0448 22.6074 24.2197 21.5332 24.2197C20.6217 24.2197 19.7632 24.0692 18.9575 23.7681C18.1519 23.467 17.4479 23.0356 16.8457 22.4741C16.2435 21.9126 15.7674 21.2331 15.4175 20.4355C15.0675 19.6299 14.8926 18.7266 14.8926 17.7256ZM21.814 23.3286C22.3918 23.3286 22.9207 23.2147 23.4009 22.9868C23.8892 22.759 24.3083 22.4294 24.6582 21.998C25.0081 21.5667 25.2808 21.0418 25.4761 20.4233C25.6714 19.8049 25.769 19.105 25.769 18.3237C25.769 17.4448 25.6755 16.631 25.4883 15.8823C25.3011 15.1255 25.0203 14.4744 24.646 13.9292C24.2798 13.3758 23.8159 12.9445 23.2544 12.6353C22.6929 12.326 22.0378 12.1714 21.2891 12.1714C20.7113 12.1714 20.1823 12.2853 19.7021 12.5132C19.222 12.7329 18.8029 13.0544 18.4448 13.4775C18.0949 13.9007 17.8223 14.4215 17.627 15.04C17.4316 15.6504 17.334 16.3462 17.334 17.1274C17.334 18.0063 17.4276 18.8242 17.6147 19.5811C17.8101 20.3379 18.0949 20.9971 18.4692 21.5586C18.8436 22.112 19.3075 22.5474 19.8608 22.8647C20.4224 23.174 21.0734 23.3286 21.814 23.3286ZM31.0303 16.2729C31.0303 15.5812 31.0181 14.979 30.9937 14.4663C30.9774 13.9455 30.953 13.4979 30.9204 13.1235C30.896 12.7492 30.8594 12.4359 30.8105 12.1836C30.7699 11.9313 30.7251 11.7197 30.6763 11.5488V11.5H33.4961V11.5488C33.4473 11.7197 33.4025 11.9313 33.3618 12.1836C33.3211 12.4359 33.2845 12.7492 33.252 13.1235C33.2194 13.4979 33.195 13.9455 33.1787 14.4663C33.1624 14.979 33.1543 15.5812 33.1543 16.2729V19.2271C33.1543 19.9188 33.1624 20.5251 33.1787 21.0459C33.195 21.5586 33.2194 22.0021 33.252 22.3765C33.2845 22.7508 33.3211 23.0641 33.3618 23.3164C33.4025 23.5687 33.4473 23.7803 33.4961 23.9512V24H30.6763V23.9512C30.7251 23.7803 30.7699 23.5687 30.8105 23.3164C30.8594 23.0641 30.896 22.7508 30.9204 22.3765C30.953 22.0021 30.9774 21.5586 30.9937 21.0459C31.0181 20.5251 31.0303 19.9188 31.0303 19.2271V16.2729ZM30.7739 7.80127C30.7739 7.62223 30.8065 7.4554 30.8716 7.30078C30.9448 7.13802 31.0384 6.99967 31.1523 6.88574C31.2663 6.76367 31.4006 6.67008 31.5552 6.60498C31.7179 6.53174 31.8929 6.49512 32.0801 6.49512C32.2673 6.49512 32.4382 6.53174 32.5928 6.60498C32.7555 6.67008 32.8939 6.76367 33.0078 6.88574C33.1299 6.99967 33.2235 7.13802 33.2886 7.30078C33.3618 7.4554 33.3984 7.62223 33.3984 7.80127C33.3984 8.17562 33.2723 8.48893 33.02 8.74121C32.7677 8.99349 32.4544 9.11963 32.0801 9.11963C31.8929 9.11963 31.7179 9.08708 31.5552 9.02197C31.4006 8.94873 31.2663 8.85514 31.1523 8.74121C31.0384 8.61914 30.9448 8.48079 30.8716 8.32617C30.8065 8.16341 30.7739 7.98844 30.7739 7.80127ZM37.0605 10.5234C37.0605 9.83171 37.0483 9.22949 37.0239 8.7168C37.0076 8.19596 36.9832 7.74837 36.9507 7.37402C36.9263 6.99967 36.8896 6.68636 36.8408 6.43408C36.8001 6.1818 36.7554 5.97021 36.7065 5.79932V5.75049H39.5264V5.79932C39.4775 5.97021 39.4328 6.1818 39.3921 6.43408C39.3514 6.68636 39.3148 6.99967 39.2822 7.37402C39.2497 7.74837 39.2253 8.19596 39.209 8.7168C39.1927 9.22949 39.1846 9.83171 39.1846 10.5234V19.2271C39.1846 19.9188 39.1927 20.5251 39.209 21.0459C39.2253 21.5586 39.2497 22.0021 39.2822 22.3765C39.3148 22.7508 39.3514 23.0641 39.3921 23.3164C39.4328 23.5687 39.4775 23.7803 39.5264 23.9512V24H36.7065V23.9512C36.7554 23.7803 36.8001 23.5687 36.8408 23.3164C36.8896 23.0641 36.9263 22.7508 36.9507 22.3765C36.9832 22.0021 37.0076 21.5586 37.0239 21.0459C37.0483 20.5251 37.0605 19.9188 37.0605 19.2271V10.5234ZM48.4863 24.2197C47.583 24.2197 46.7367 24.0773 45.9473 23.7925C45.1579 23.5076 44.4702 23.0926 43.8843 22.5474C43.2983 21.994 42.8345 21.3145 42.4927 20.5088C42.159 19.695 41.9922 18.7673 41.9922 17.7256C41.9922 16.806 42.1468 15.9556 42.4561 15.1743C42.7653 14.3849 43.1925 13.7013 43.7378 13.1235C44.283 12.5457 44.9178 12.0941 45.6421 11.7686C46.3745 11.443 47.1639 11.2803 48.0103 11.2803C48.8485 11.2803 49.6257 11.4268 50.3418 11.7197C51.0579 12.0046 51.6764 12.4237 52.1973 12.9771C52.7262 13.5223 53.1413 14.2018 53.4424 15.0156C53.7516 15.8213 53.9185 16.7409 53.9429 17.7744C53.0233 17.7581 52.1037 17.7459 51.1841 17.7378C50.2645 17.7297 49.3083 17.7256 48.3154 17.7256C47.6074 17.7256 46.9157 17.7297 46.2402 17.7378C45.5729 17.7459 44.9707 17.7581 44.4336 17.7744C44.4824 18.6208 44.6126 19.3857 44.8242 20.0693C45.0439 20.7529 45.341 21.3389 45.7153 21.8271C46.0978 22.3073 46.5576 22.6776 47.0947 22.938C47.64 23.1984 48.2544 23.3286 48.938 23.3286C49.41 23.3286 49.8535 23.2757 50.2686 23.1699C50.6917 23.056 51.0742 22.9014 51.416 22.7061C51.7578 22.5107 52.063 22.2829 52.3315 22.0225C52.6001 21.7539 52.828 21.465 53.0151 21.1558L53.1616 21.229L52.2583 23.4019C51.8188 23.6297 51.2939 23.825 50.6836 23.9878C50.0732 24.1424 49.3408 24.2197 48.4863 24.2197ZM46.8628 16.7734C47.6766 16.7734 48.4904 16.7734 49.3042 16.7734C50.1261 16.7653 50.8708 16.749 51.5381 16.7246C51.4648 16.0166 51.3265 15.3818 51.123 14.8203C50.9196 14.2588 50.6592 13.7827 50.3418 13.3921C50.0244 13.0015 49.6501 12.7004 49.2188 12.4888C48.7874 12.2772 48.3114 12.1714 47.7905 12.1714C47.3185 12.1714 46.8831 12.2772 46.4844 12.4888C46.0938 12.6922 45.752 12.9893 45.459 13.3799C45.166 13.7705 44.93 14.2507 44.751 14.8203C44.5719 15.3818 44.4661 16.0247 44.4336 16.749C44.7998 16.7653 45.1864 16.7734 45.5933 16.7734C46.0002 16.7734 46.4233 16.7734 46.8628 16.7734ZM56.5674 16.2729C56.5674 15.5812 56.5552 14.979 56.5308 14.4663C56.5145 13.9455 56.4901 13.4979 56.4575 13.1235C56.4331 12.7492 56.3965 12.4359 56.3477 12.1836C56.307 11.9313 56.2622 11.7197 56.2134 11.5488V11.5H59.0332V11.5488C58.9681 11.736 58.9111 11.9639 58.8623 12.2324C58.8216 12.501 58.7891 12.8468 58.7646 13.27C59.0658 13.0177 59.3791 12.7695 59.7046 12.5254C60.0301 12.2812 60.3638 12.0656 60.7056 11.8784C61.0474 11.6912 61.3932 11.5407 61.7432 11.4268C62.1012 11.3128 62.4593 11.2559 62.8174 11.2559C63.0371 11.2559 63.2284 11.2681 63.3911 11.2925C63.5539 11.3088 63.7004 11.3372 63.8306 11.3779C63.9608 11.4105 64.0788 11.4512 64.1846 11.5C64.2904 11.5407 64.3921 11.5814 64.4897 11.6221L63.8916 13.9536L63.6841 13.9048C63.5864 13.5467 63.4033 13.2619 63.1348 13.0503C62.8662 12.8306 62.5 12.7207 62.0361 12.7207C61.7839 12.7207 61.5194 12.7655 61.2427 12.855C60.966 12.9445 60.6852 13.0706 60.4004 13.2334C60.1156 13.388 59.8307 13.5711 59.5459 13.7827C59.2611 13.9862 58.9844 14.2018 58.7158 14.4297C58.6995 14.6657 58.6914 14.922 58.6914 15.1987C58.6914 15.4754 58.6914 15.7684 58.6914 16.0776V19.2271C58.6914 19.9188 58.6995 20.5251 58.7158 21.0459C58.7321 21.5586 58.7565 22.0021 58.7891 22.3765C58.8216 22.7508 58.8582 23.0641 58.8989 23.3164C58.9396 23.5687 58.9844 23.7803 59.0332 23.9512V24H56.2134V23.9512C56.2622 23.7803 56.307 23.5687 56.3477 23.3164C56.3965 23.0641 56.4331 22.7508 56.4575 22.3765C56.4901 22.0021 56.5145 21.5586 56.5308 21.0459C56.5552 20.5251 56.5674 19.9188 56.5674 19.2271V16.2729ZM66.3818 16.0288C66.3818 15.3371 66.3696 14.7349 66.3452 14.2222C66.3289 13.7013 66.3045 13.2537 66.272 12.8794C66.2476 12.505 66.2109 12.1917 66.1621 11.9395C66.1214 11.6872 66.0767 11.4756 66.0278 11.3047V11.2559H68.8477V11.3047C68.807 11.4268 68.7703 11.5651 68.7378 11.7197C68.7052 11.8743 68.6768 12.0493 68.6523 12.2446C69.1325 11.9679 69.6615 11.736 70.2393 11.5488C70.8252 11.3535 71.4722 11.2559 72.1802 11.2559C73.0835 11.2559 73.9054 11.4105 74.646 11.7197C75.3947 12.0208 76.0335 12.4562 76.5625 13.0259C77.0996 13.5955 77.5146 14.2832 77.8076 15.0889C78.1006 15.8945 78.2471 16.7979 78.2471 17.7988C78.2471 18.637 78.1006 19.4427 77.8076 20.2158C77.5228 20.9889 77.0996 21.6725 76.5381 22.2666C75.9847 22.8607 75.3011 23.3368 74.4873 23.6948C73.6735 24.0448 72.7376 24.2197 71.6797 24.2197C71.0449 24.2197 70.4671 24.1709 69.9463 24.0732C69.4255 23.9756 68.9453 23.8494 68.5059 23.6948V25.4771C68.5059 26.1688 68.514 26.771 68.5303 27.2837C68.5465 27.8045 68.571 28.2521 68.6035 28.6265C68.6361 29.0008 68.6727 29.3141 68.7134 29.5664C68.7541 29.8187 68.7988 30.0303 68.8477 30.2012V30.25H66.0278V30.2012C66.0767 30.0303 66.1214 29.8187 66.1621 29.5664C66.2109 29.3141 66.2476 29.0008 66.272 28.6265C66.3045 28.2521 66.3289 27.8045 66.3452 27.2837C66.3696 26.771 66.3818 26.1688 66.3818 25.4771V16.0288ZM71.7529 12.1714C71.4762 12.1714 71.1914 12.208 70.8984 12.2812C70.6136 12.3464 70.3288 12.444 70.0439 12.5742C69.7673 12.6963 69.4987 12.855 69.2383 13.0503C68.986 13.2375 68.7581 13.4531 68.5547 13.6973C68.5384 14.0065 68.5262 14.3564 68.5181 14.7471C68.5099 15.1377 68.5059 15.5649 68.5059 16.0288V22.4253C68.6686 22.5474 68.8517 22.6613 69.0552 22.7671C69.2586 22.8729 69.4865 22.9705 69.7388 23.0601C69.9992 23.1414 70.2881 23.2065 70.6055 23.2554C70.931 23.3042 71.2891 23.3286 71.6797 23.3286C72.3145 23.3286 72.8882 23.2147 73.4009 22.9868C73.9136 22.759 74.3449 22.4294 74.6948 21.998C75.0529 21.5667 75.3255 21.0418 75.5127 20.4233C75.708 19.8049 75.8057 19.105 75.8057 18.3237C75.8057 17.4448 75.7324 16.631 75.5859 15.8823C75.4395 15.1255 75.2035 14.4744 74.8779 13.9292C74.5605 13.3758 74.1455 12.9445 73.6328 12.6353C73.1201 12.326 72.4935 12.1714 71.7529 12.1714ZM81.0547 10.5234C81.0547 9.83171 81.0425 9.22949 81.0181 8.7168C81.0018 8.19596 80.9774 7.74837 80.9448 7.37402C80.9204 6.99967 80.8838 6.68636 80.835 6.43408C80.7943 6.1818 80.7495 5.97021 80.7007 5.79932V5.75049H83.5205V5.79932C83.4717 5.97021 83.4269 6.1818 83.3862 6.43408C83.3455 6.68636 83.3089 6.99967 83.2764 7.37402C83.2438 7.74837 83.2194 8.19596 83.2031 8.7168C83.1868 9.22949 83.1787 9.83171 83.1787 10.5234V19.2271C83.1787 19.9188 83.1868 20.5251 83.2031 21.0459C83.2194 21.5586 83.2438 22.0021 83.2764 22.3765C83.3089 22.7508 83.3455 23.0641 83.3862 23.3164C83.4269 23.5687 83.4717 23.7803 83.5205 23.9512V24H80.7007V23.9512C80.7495 23.7803 80.7943 23.5687 80.835 23.3164C80.8838 23.0641 80.9204 22.7508 80.9448 22.3765C80.9774 22.0021 81.0018 21.5586 81.0181 21.0459C81.0425 20.5251 81.0547 19.9188 81.0547 19.2271V10.5234ZM86.0352 20.3989C86.0352 19.756 86.1654 19.1986 86.4258 18.7266C86.6943 18.2546 87.0483 17.8517 87.4878 17.5181C87.9272 17.1844 88.4277 16.9159 88.9893 16.7124C89.5508 16.5008 90.1326 16.3381 90.7349 16.2241C91.3371 16.1021 91.9312 16.0207 92.5171 15.98C93.103 15.9312 93.6401 15.9027 94.1284 15.8945V15.272C94.1284 14.7349 94.0592 14.271 93.9209 13.8804C93.7826 13.4897 93.5872 13.1683 93.335 12.916C93.0827 12.6556 92.7775 12.4644 92.4194 12.3423C92.0695 12.2121 91.6829 12.147 91.2598 12.147C90.9668 12.147 90.6779 12.1714 90.3931 12.2202C90.1082 12.269 89.8112 12.3504 89.502 12.4644C89.2008 12.5783 88.8794 12.7329 88.5376 12.9282C88.2039 13.1235 87.8418 13.3717 87.4512 13.6729L87.3291 13.5996L88.1592 11.8784C88.4277 11.7563 88.6922 11.6587 88.9526 11.5854C89.2131 11.5041 89.4775 11.439 89.7461 11.3901C90.0146 11.3413 90.2873 11.3088 90.564 11.2925C90.8488 11.2681 91.1458 11.2559 91.4551 11.2559C92.3096 11.2559 93.0379 11.3617 93.6401 11.5732C94.2505 11.7767 94.7469 12.0615 95.1294 12.4277C95.52 12.7858 95.8049 13.209 95.9839 13.6973C96.1629 14.1774 96.2524 14.6942 96.2524 15.2476V19.2271C96.2524 19.9188 96.2606 20.5251 96.2769 21.0459C96.3013 21.5586 96.3257 22.0021 96.3501 22.3765C96.3826 22.7508 96.4193 23.0641 96.46 23.3164C96.5088 23.5687 96.5576 23.7803 96.6064 23.9512V24H93.9087V23.9512C93.9494 23.821 93.9779 23.6745 93.9941 23.5117C94.0186 23.349 94.0389 23.1536 94.0552 22.9258C93.8843 23.0723 93.6808 23.2228 93.4448 23.3774C93.217 23.5321 92.9525 23.6745 92.6514 23.8047C92.3584 23.9268 92.0288 24.0244 91.6626 24.0977C91.3045 24.179 90.9098 24.2197 90.4785 24.2197C89.0625 24.2197 87.9679 23.8901 87.1948 23.231C86.4217 22.5636 86.0352 21.6196 86.0352 20.3989ZM94.1284 16.8467C93.3879 16.8548 92.6758 16.8996 91.9922 16.981C91.3086 17.0542 90.7023 17.2129 90.1733 17.457C89.6525 17.7012 89.2334 18.0511 88.916 18.5068C88.6068 18.9544 88.4521 19.5526 88.4521 20.3013C88.4521 21.2616 88.6922 21.994 89.1724 22.4985C89.6525 23.0031 90.3158 23.2554 91.1621 23.2554C91.5527 23.2554 91.9067 23.2025 92.2241 23.0967C92.5496 22.9827 92.8345 22.8444 93.0786 22.6816C93.3309 22.5107 93.5425 22.3276 93.7134 22.1323C93.8843 21.9289 94.0145 21.7336 94.104 21.5464C94.1203 21.2371 94.1284 20.8953 94.1284 20.521C94.1284 20.1385 94.1284 19.7072 94.1284 19.2271V16.8467ZM104.37 23.2798C104.614 23.2798 104.854 23.235 105.09 23.1455C105.334 23.056 105.566 22.9339 105.786 22.7793C106.014 22.6247 106.23 22.4497 106.433 22.2544C106.645 22.0509 106.84 21.8394 107.019 21.6196L107.141 21.6807L106.348 23.646C106.25 23.6948 106.128 23.7559 105.981 23.8291C105.843 23.8942 105.672 23.9552 105.469 24.0122C105.273 24.0773 105.042 24.1302 104.773 24.1709C104.504 24.2197 104.187 24.2441 103.821 24.2441C102.73 24.2441 101.88 23.9512 101.27 23.3652C100.667 22.7712 100.366 21.8475 100.366 20.5942V12.4521L98.3154 12.5254V11.4512C98.5677 11.4674 98.8688 11.4797 99.2188 11.4878C99.5687 11.4959 99.9512 11.5 100.366 11.5C100.358 10.9222 100.342 10.4136 100.317 9.97412C100.301 9.52653 100.277 9.13997 100.244 8.81445C100.22 8.48079 100.187 8.20003 100.146 7.97217C100.106 7.7443 100.065 7.55306 100.024 7.39844V7.34961H102.844V7.39844C102.795 7.55306 102.751 7.7443 102.71 7.97217C102.669 8.20003 102.633 8.47673 102.6 8.80225C102.576 9.12777 102.551 9.51432 102.527 9.96191C102.511 10.4014 102.498 10.9141 102.49 11.5C103.003 11.4919 103.503 11.4837 103.992 11.4756C104.488 11.4593 104.936 11.443 105.334 11.4268C105.741 11.4023 106.083 11.382 106.36 11.3657C106.645 11.3413 106.832 11.321 106.921 11.3047L106.702 12.5498C106.287 12.5417 105.851 12.5295 105.396 12.5132C105.005 12.4969 104.557 12.4847 104.053 12.4766C103.548 12.4684 103.027 12.4603 102.49 12.4521V20.8506C102.49 21.3551 102.543 21.7661 102.649 22.0835C102.763 22.3927 102.905 22.6369 103.076 22.8159C103.255 22.995 103.455 23.117 103.674 23.1821C103.902 23.2472 104.134 23.2798 104.37 23.2798ZM115.015 24.2197C114.111 24.2197 113.265 24.0773 112.476 23.7925C111.686 23.5076 110.999 23.0926 110.413 22.5474C109.827 21.994 109.363 21.3145 109.021 20.5088C108.687 19.695 108.521 18.7673 108.521 17.7256C108.521 16.806 108.675 15.9556 108.984 15.1743C109.294 14.3849 109.721 13.7013 110.266 13.1235C110.811 12.5457 111.446 12.0941 112.17 11.7686C112.903 11.443 113.692 11.2803 114.539 11.2803C115.377 11.2803 116.154 11.4268 116.87 11.7197C117.586 12.0046 118.205 12.4237 118.726 12.9771C119.255 13.5223 119.67 14.2018 119.971 15.0156C120.28 15.8213 120.447 16.7409 120.471 17.7744C119.552 17.7581 118.632 17.7459 117.712 17.7378C116.793 17.7297 115.837 17.7256 114.844 17.7256C114.136 17.7256 113.444 17.7297 112.769 17.7378C112.101 17.7459 111.499 17.7581 110.962 17.7744C111.011 18.6208 111.141 19.3857 111.353 20.0693C111.572 20.7529 111.869 21.3389 112.244 21.8271C112.626 22.3073 113.086 22.6776 113.623 22.938C114.168 23.1984 114.783 23.3286 115.466 23.3286C115.938 23.3286 116.382 23.2757 116.797 23.1699C117.22 23.056 117.603 22.9014 117.944 22.7061C118.286 22.5107 118.591 22.2829 118.86 22.0225C119.128 21.7539 119.356 21.465 119.543 21.1558L119.69 21.229L118.787 23.4019C118.347 23.6297 117.822 23.825 117.212 23.9878C116.602 24.1424 115.869 24.2197 115.015 24.2197ZM113.391 16.7734C114.205 16.7734 115.019 16.7734 115.833 16.7734C116.654 16.7653 117.399 16.749 118.066 16.7246C117.993 16.0166 117.855 15.3818 117.651 14.8203C117.448 14.2588 117.188 13.7827 116.87 13.3921C116.553 13.0015 116.178 12.7004 115.747 12.4888C115.316 12.2772 114.84 12.1714 114.319 12.1714C113.847 12.1714 113.411 12.2772 113.013 12.4888C112.622 12.6922 112.28 12.9893 111.987 13.3799C111.694 13.7705 111.458 14.2507 111.279 14.8203C111.1 15.3818 110.994 16.0247 110.962 16.749C111.328 16.7653 111.715 16.7734 112.122 16.7734C112.528 16.7734 112.952 16.7734 113.391 16.7734Z" fill="black"/>
</svg>
