<svg width="24" height="20" viewBox="0 0 24 20" fill="none" xmlns="http://www.w3.org/2000/svg">
<path d="M12.5623 16.9268C12.5623 16.1163 12.1298 15.3675 11.4279 14.9622C10.726 14.5568 9.86119 14.5569 9.15909 14.9622C8.4572 15.3674 8.0249 16.1162 8.0249 16.9268C8.0249 17.7374 8.4572 18.4863 9.15909 18.8916C9.86119 19.2969 10.726 19.2969 11.4279 18.8916C12.1298 18.4864 12.5623 17.7374 12.5623 16.9268ZM9.13153 16.9268C9.13153 16.5117 9.35308 16.128 9.71263 15.9206C10.0722 15.7129 10.5151 15.7129 10.8746 15.9206C11.2342 16.128 11.4555 16.5117 11.4555 16.9268C11.4555 17.3419 11.2342 17.7256 10.8746 17.9332C10.5151 18.1407 10.0722 18.1407 9.71263 17.9332C9.35309 17.7256 9.13153 17.3419 9.13153 16.9268Z" fill="black"/>
<path d="M20.4748 16.9268C20.4821 16.3251 20.2502 15.7451 19.8298 15.3146C19.4095 14.8838 18.8353 14.6378 18.2338 14.6304C17.6296 14.6378 17.0525 14.8828 16.6277 15.3128C16.2032 15.7426 15.965 16.3225 15.965 16.9268C15.9577 17.5358 16.1925 18.1229 16.6181 18.5587C17.0434 18.9946 17.6247 19.2436 18.2338 19.2509C18.8379 19.2363 19.412 18.9842 19.8315 18.5492C20.2511 18.114 20.4821 17.5312 20.4748 16.9268V16.9268ZM17.0716 16.9268C17.0643 16.614 17.1834 16.3112 17.402 16.0873C17.6209 15.8633 17.9208 15.7371 18.2338 15.7372C18.542 15.7444 18.8346 15.8739 19.0475 16.097C19.2601 16.3201 19.3755 16.6186 19.368 16.9268C19.3757 17.2377 19.2611 17.5394 19.0492 17.7669C18.8371 17.9944 18.5443 18.1299 18.2338 18.1442C17.9181 18.1371 17.6184 18.0047 17.4005 17.7764C17.1826 17.5481 17.0643 17.2423 17.0716 16.9268Z" fill="black"/>
<path d="M22.965 3.78507H6.36494L6.00521 2.65068V2.65087C5.85101 2.13943 5.53644 1.69132 5.10801 1.37251C4.67959 1.0537 4.16003 0.880973 3.62586 0.880005H1.27428C0.968586 0.880005 0.720992 1.1278 0.720992 1.43349C0.712887 1.58248 0.768467 1.72799 0.874034 1.83356C0.979791 1.93912 1.12511 1.99489 1.27429 1.98679H3.62607H3.62588C3.92424 1.99104 4.21336 2.08985 4.45188 2.26875C4.69061 2.44784 4.86623 2.69776 4.95404 2.9828L7.49939 11.1722C7.66266 11.7419 8.00791 12.2425 8.48265 12.5972C8.9574 12.9519 9.53522 13.1415 10.1277 13.1366H18.8427C19.4343 13.1368 20.0099 12.9456 20.4837 12.5916C20.9575 12.2375 21.304 11.7396 21.4712 11.1722L23.4909 4.50452V4.50472C23.5499 4.33527 23.5187 4.14769 23.4079 4.00661C23.31 3.85956 23.1416 3.77541 22.9652 3.78526L22.965 3.78507ZM20.4197 10.8401C20.3189 11.1811 20.1113 11.4808 19.8274 11.6951C19.5435 11.9093 19.1983 12.0266 18.8426 12.0299H10.1275C9.77532 12.0284 9.43279 11.9151 9.14946 11.7063C8.86596 11.4972 8.65618 11.2037 8.55062 10.8677L6.69679 4.89167H22.2179L20.4197 10.8401Z" fill="black"/>
</svg>
