<svg width="24" height="25" viewBox="0 0 24 25" fill="none" xmlns="http://www.w3.org/2000/svg">
<path fill-rule="evenodd" clip-rule="evenodd" d="M16.8097 5.5293C17.0834 5.52913 17.346 5.63779 17.5395 5.83134L18.6692 6.96103C18.8628 7.15458 18.9714 7.41714 18.9713 7.69087C18.9711 7.96459 18.8621 8.22702 18.6683 8.42033L5.88084 21.1764C5.78502 21.272 5.67133 21.3478 5.54625 21.3995L3.675 22.1724C3.28983 22.3315 2.84675 22.2432 2.55208 21.9485C2.2574 21.6538 2.16904 21.2107 2.32815 20.8256L3.10112 18.9543C3.15278 18.8292 3.22857 18.7156 3.32415 18.6197L16.0802 5.83224C16.2736 5.63845 16.536 5.52947 16.8097 5.5293Z" fill="white"/>
<path fill-rule="evenodd" clip-rule="evenodd" d="M19.2177 2.88743C19.4367 2.7967 19.6714 2.75 19.9085 2.75C20.1456 2.75 20.3803 2.7967 20.5994 2.88743C20.8184 2.97815 21.0174 3.11112 21.185 3.27875C21.185 3.27876 21.185 3.27878 21.185 3.27879L21.2204 3.31418C21.5587 3.65267 21.7487 4.11162 21.7487 4.59014C21.7487 5.06867 21.5587 5.52761 21.2204 5.86611L20.6675 6.41903C20.2648 6.82176 19.6118 6.82176 19.2091 6.41903L18.0794 5.28934C17.8859 5.09589 17.7773 4.8335 17.7773 4.55992C17.7774 4.28634 17.8862 4.024 18.0797 3.83063L18.632 3.27879C18.6321 3.27872 18.6322 3.27864 18.6322 3.27857C18.6323 3.27853 18.6323 3.27848 18.6324 3.27844C18.7999 3.11096 18.9988 2.9781 19.2177 2.88743ZM20.4909 5.13717L20.6675 4.96062L20.1205 4.41359L20.4909 4.04311L20.1203 4.41346L20.0853 4.37844L19.5378 3.83094" fill="white"/>
</svg>
