<svg width="20" height="28" viewBox="0 0 20 28" fill="none" xmlns="http://www.w3.org/2000/svg">
<path d="M10.0003 0.666992C4.84566 0.666992 0.666992 4.84566 0.666992 10.0003C0.666992 19.3337 10.0003 27.3337 10.0003 27.3337C10.0003 27.3337 19.3337 19.3337 19.3337 10.0003C19.3337 4.84566 15.155 0.666992 10.0003 0.666992ZM10.0003 25.507C7.76699 23.3117 2.00033 16.9677 2.00033 10.0003C2.00033 5.58899 5.58899 2.00033 10.0003 2.00033C14.4117 2.00033 18.0003 5.58899 18.0003 10.0003C18.0003 16.9683 12.233 23.3123 10.0003 25.507Z" fill="white"/>
<path d="M10.0003 11.3337C10.7367 11.3337 11.3337 10.7367 11.3337 10.0003C11.3337 9.26395 10.7367 8.66699 10.0003 8.66699C9.26395 8.66699 8.66699 9.26395 8.66699 10.0003C8.66699 10.7367 9.26395 11.3337 10.0003 11.3337Z" fill="white"/>
</svg>
