<svg width="24" height="25" viewBox="0 0 24 25" fill="none" xmlns="http://www.w3.org/2000/svg">
<path d="M17.25 20.2434V4.125C17.2491 3.8269 17.1303 3.54125 16.9195 3.33046C16.7087 3.11967 16.4231 3.00087 16.125 3H3.375C3.0769 3.00087 2.79125 3.11967 2.58046 3.33046C2.36967 3.54125 2.25087 3.8269 2.25 4.125V20.625C2.25148 21.1218 2.4495 21.5979 2.80081 21.9492C3.15212 22.3005 3.62818 22.4985 4.125 22.5H19.5" stroke="white" stroke-width="1.5" stroke-linejoin="round"/>
<path d="M19.5 22.5C18.9033 22.5 18.331 22.2629 17.909 21.841C17.4871 21.419 17.25 20.8467 17.25 20.25V6.75H20.625C20.9234 6.75 21.2095 6.86853 21.4205 7.0795C21.6315 7.29048 21.75 7.57663 21.75 7.875V20.25C21.75 20.8467 21.5129 21.419 21.091 21.841C20.669 22.2629 20.0967 22.5 19.5 22.5Z" stroke="white" stroke-width="1.5" stroke-linejoin="round"/>
<path d="M11.25 6.75H14.25" stroke="white" stroke-width="1.5" stroke-linecap="round" stroke-linejoin="round"/>
<path d="M11.25 9.75H14.25" stroke="white" stroke-width="1.5" stroke-linecap="round" stroke-linejoin="round"/>
<path d="M5.25 12.75H14.25" stroke="white" stroke-width="1.5" stroke-linecap="round" stroke-linejoin="round"/>
<path d="M5.25 15.75H14.25" stroke="white" stroke-width="1.5" stroke-linecap="round" stroke-linejoin="round"/>
<path d="M5.25 18.75H14.25" stroke="white" stroke-width="1.5" stroke-linecap="round" stroke-linejoin="round"/>
<path d="M8.25 10.5H5.25C5.05109 10.5 4.86032 10.421 4.71967 10.2803C4.57902 10.1397 4.5 9.94891 4.5 9.75V6.75C4.5 6.55109 4.57902 6.36032 4.71967 6.21967C4.86032 6.07902 5.05109 6 5.25 6H8.25C8.44891 6 8.63968 6.07902 8.78033 6.21967C8.92098 6.36032 9 6.55109 9 6.75V9.75C9 9.94891 8.92098 10.1397 8.78033 10.2803C8.63968 10.421 8.44891 10.5 8.25 10.5Z" fill="white"/>
</svg>
