<svg width="24" height="20" viewBox="0 0 24 20" fill="none" xmlns="http://www.w3.org/2000/svg">
<path d="M12.5621 16.9268C12.5621 16.1163 12.1297 15.3675 11.4278 14.9622C10.7258 14.5569 9.86107 14.5569 9.15897 14.9622C8.45707 15.3675 8.02478 16.1162 8.02478 16.9268C8.02478 17.7374 8.45707 18.4863 9.15897 18.8917C9.86107 19.2969 10.7259 19.2969 11.4278 18.8917C12.1296 18.4864 12.5621 17.7374 12.5621 16.9268ZM9.1314 16.9268C9.1314 16.5117 9.35296 16.128 9.71251 15.9206C10.072 15.7129 10.5149 15.7129 10.8745 15.9206C11.234 16.128 11.4554 16.5117 11.4554 16.9268C11.4554 17.3419 11.2341 17.7256 10.8745 17.9332C10.515 18.1407 10.0721 18.1407 9.71251 17.9332C9.35297 17.7256 9.1314 17.3419 9.1314 16.9268Z" fill="black"/>
<path d="M20.4748 16.9268C20.4821 16.325 20.2502 15.7451 19.8298 15.3146C19.4095 14.8838 18.8353 14.6378 18.2338 14.6304C17.6296 14.6377 17.0525 14.8828 16.6277 15.3128C16.2032 15.7426 15.965 16.3225 15.965 16.9267C15.9577 17.5358 16.1925 18.1229 16.6181 18.5586C17.0434 18.9946 17.6247 19.2436 18.2338 19.2509C18.8379 19.2362 19.412 18.9842 19.8315 18.5492C20.2511 18.114 20.4821 17.5312 20.4748 16.9267V16.9268ZM17.0716 16.9268C17.0643 16.614 17.1834 16.3112 17.402 16.0873C17.6209 15.8632 17.9208 15.737 18.2338 15.7372C18.542 15.7444 18.8346 15.8739 19.0475 16.097C19.2601 16.3201 19.3755 16.6186 19.368 16.9268C19.3757 17.2377 19.2611 17.5393 19.0492 17.7669C18.8371 17.9944 18.5443 18.1299 18.2338 18.1442C17.9181 18.137 17.6184 18.0047 17.4005 17.7764C17.1826 17.548 17.0643 17.2423 17.0716 16.9268Z" fill="black"/>
<path d="M22.9648 3.78507H6.36469L6.00496 2.65068V2.65087C5.85077 2.13943 5.53619 1.69132 5.10777 1.37251C4.67934 1.0537 4.15978 0.880973 3.62562 0.880005H1.27404C0.968342 0.880005 0.720748 1.1278 0.720748 1.43349C0.712643 1.58248 0.768223 1.72799 0.87379 1.83356C0.979547 1.93912 1.12487 1.99489 1.27405 1.98679H3.62583H3.62564C3.924 1.99104 4.21311 2.08985 4.45164 2.26875C4.69036 2.44784 4.86599 2.69776 4.95379 2.9828L7.49914 11.1722C7.66241 11.7419 8.00767 12.2425 8.4824 12.5972C8.95715 12.9519 9.53498 13.1415 10.1274 13.1366H18.8425C19.434 13.1368 20.0097 12.9456 20.4835 12.5916C20.9573 12.2375 21.3037 11.7396 21.471 11.1722L23.4906 4.50452V4.50472C23.5497 4.33527 23.5184 4.14769 23.4076 4.00661C23.3098 3.85956 23.1413 3.77541 22.9649 3.78526L22.9648 3.78507ZM20.4194 10.8401C20.3187 11.1811 20.111 11.4808 19.8272 11.6951C19.5433 11.9093 19.1981 12.0266 18.8423 12.0299H10.1273C9.77508 12.0284 9.43255 11.9151 9.14921 11.7063C8.86571 11.4972 8.65593 11.2037 8.55037 10.8677L6.69655 4.89167H22.2176L20.4194 10.8401Z" fill="black"/>
</svg>
