<svg width="40" height="40" viewBox="0 0 40 40" fill="none" xmlns="http://www.w3.org/2000/svg">
<circle cx="20" cy="20" r="20" fill="#989898"/>
<path d="M30 20.5C30.2761 20.5 30.5 20.2761 30.5 20C30.5 19.7239 30.2761 19.5 30 19.5V20.5ZM10.6464 19.6464C10.4512 19.8417 10.4512 20.1583 10.6464 20.3536L13.8284 23.5355C14.0237 23.7308 14.3403 23.7308 14.5355 23.5355C14.7308 23.3403 14.7308 23.0237 14.5355 22.8284L11.7071 20L14.5355 17.1716C14.7308 16.9763 14.7308 16.6597 14.5355 16.4645C14.3403 16.2692 14.0237 16.2692 13.8284 16.4645L10.6464 19.6464ZM30 19.5L11 19.5V20.5L30 20.5V19.5Z" fill="white"/>
</svg>
