<svg width="24" height="24" viewBox="0 0 24 24" fill="none" xmlns="http://www.w3.org/2000/svg">
<path d="M23.2944 21.9752L17.3046 15.9853C18.8173 14.1257 19.5587 11.7567 19.3763 9.36645C19.1937 6.97633 18.1011 4.74745 16.3235 3.13911C14.5461 1.53093 12.2192 0.666029 9.82286 0.722612C7.42642 0.779436 5.14304 1.75335 3.44362 3.44389C1.75314 5.14337 0.779191 7.4268 0.722341 9.82313C0.665725 12.2196 1.5306 14.5464 3.13883 16.3238C4.74723 18.1014 6.97611 19.194 9.36618 19.3766C11.7563 19.559 14.1254 18.8175 15.985 17.3048L21.9749 23.2947C22.216 23.5011 22.545 23.5713 22.8492 23.4815C23.1534 23.3914 23.3914 23.1535 23.4814 22.8493C23.5712 22.5452 23.501 22.2161 23.2946 21.975L23.2944 21.9752ZM4.76322 15.3585C3.35848 13.9546 2.56905 12.05 2.56862 10.0641C2.5682 8.07793 3.35682 6.17309 4.76092 4.76857C6.16523 3.36405 8.06985 2.57499 10.056 2.57499C12.0419 2.57499 13.9467 3.36405 15.3508 4.76857C16.7551 6.17309 17.5438 8.07793 17.5433 10.0641C17.5429 12.05 16.7533 13.9546 15.3485 15.3585C13.9507 16.773 12.0446 17.5692 10.056 17.5692C8.06712 17.5692 6.16106 16.773 4.76322 15.3585Z" fill="black"/>
</svg>
