<svg width="64" height="24" viewBox="0 0 64 24" fill="none" xmlns="http://www.w3.org/2000/svg">
<path d="M23.2947 21.9752L17.3048 15.9853C18.8175 14.1257 19.5589 11.7567 19.3766 9.36645C19.194 6.97633 18.1013 4.74745 16.3237 3.13911C14.5463 1.53093 12.2195 0.666029 9.8231 0.722612C7.42666 0.779436 5.14329 1.75335 3.44387 3.44389C1.75338 5.14337 0.779435 7.4268 0.722585 9.82313C0.665969 12.2196 1.53085 14.5464 3.13908 16.3238C4.74747 18.1014 6.97635 19.194 9.36643 19.3766C11.7566 19.559 14.1256 18.8175 15.9853 17.3048L21.9751 23.2947C22.2162 23.5011 22.5453 23.5713 22.8495 23.4815C23.1536 23.3914 23.3916 23.1535 23.4816 22.8493C23.5714 22.5452 23.5012 22.2161 23.2948 21.975L23.2947 21.9752ZM4.76346 15.3585C3.35872 13.9546 2.56929 12.05 2.56886 10.0641C2.56844 8.07793 3.35707 6.17309 4.76116 4.76857C6.16547 3.36405 8.0701 2.57499 10.0562 2.57499C12.0421 2.57499 13.947 3.36405 15.3511 4.76857C16.7554 6.17309 17.544 8.07793 17.5436 10.0641C17.5432 12.05 16.7535 13.9546 15.3488 15.3585C13.9509 16.773 12.0449 17.5692 10.0562 17.5692C8.06737 17.5692 6.1613 16.773 4.76346 15.3585Z" fill="black"/>
<path d="M52.5621 18.9268C52.5621 18.1163 52.1296 17.3675 51.4277 16.9622C50.7258 16.5568 49.861 16.5569 49.1589 16.9622C48.457 17.3674 48.0247 18.1162 48.0247 18.9268C48.0247 19.7374 48.457 20.4863 49.1589 20.8916C49.861 21.2969 50.7258 21.2969 51.4277 20.8916C52.1296 20.4864 52.5621 19.7374 52.5621 18.9268ZM49.1313 18.9268C49.1313 18.5117 49.3529 18.128 49.7124 17.9206C50.072 17.7129 50.5149 17.7129 50.8745 17.9206C51.234 18.128 51.4554 18.5117 51.4554 18.9268C51.4554 19.3419 51.234 19.7256 50.8745 19.9332C50.5149 20.1407 50.072 20.1407 49.7124 19.9332C49.3529 19.7256 49.1313 19.3419 49.1313 18.9268Z" fill="black"/>
<path d="M60.4748 18.9268C60.4821 18.3251 60.2502 17.7451 59.8298 17.3146C59.4095 16.8838 58.8353 16.6378 58.2338 16.6304C57.6296 16.6378 57.0525 16.8828 56.6277 17.3128C56.2032 17.7426 55.965 18.3225 55.965 18.9268C55.9577 19.5358 56.1925 20.1229 56.6181 20.5587C57.0434 20.9946 57.6247 21.2436 58.2338 21.2509C58.8379 21.2363 59.412 20.9842 59.8315 20.5492C60.2511 20.114 60.4821 19.5312 60.4748 18.9268V18.9268ZM57.0716 18.9268C57.0643 18.614 57.1834 18.3112 57.402 18.0873C57.6209 17.8633 57.9208 17.7371 58.2338 17.7372C58.542 17.7444 58.8346 17.8739 59.0475 18.097C59.2601 18.3201 59.3755 18.6186 59.368 18.9268C59.3757 19.2377 59.2611 19.5394 59.0492 19.7669C58.8371 19.9944 58.5443 20.1299 58.2338 20.1442C57.9181 20.1371 57.6184 20.0047 57.4005 19.7764C57.1826 19.5481 57.0643 19.2423 57.0716 18.9268Z" fill="black"/>
<path d="M62.9648 5.78507H46.3647L46.005 4.65068V4.65087C45.8508 4.13943 45.5362 3.69132 45.1078 3.37251C44.6793 3.0537 44.1598 2.88097 43.6256 2.88H41.274C40.9683 2.88 40.7207 3.1278 40.7207 3.43349C40.7126 3.58248 40.7682 3.72799 40.8738 3.83356C40.9795 3.93912 41.1249 3.99489 41.274 3.98679H43.6258H43.6256C43.924 3.99104 44.2131 4.08985 44.4516 4.26875C44.6904 4.44784 44.866 4.69776 44.9538 4.9828L47.4991 13.1722C47.6624 13.7419 48.0077 14.2425 48.4824 14.5972C48.9572 14.9519 49.535 15.1415 50.1274 15.1366H58.8425C59.434 15.1368 60.0097 14.9456 60.4835 14.5916C60.9573 14.2375 61.3037 13.7396 61.471 13.1722L63.4906 6.50452V6.50472C63.5497 6.33527 63.5184 6.14769 63.4076 6.00661C63.3098 5.85956 63.1413 5.77541 62.9649 5.78526L62.9648 5.78507ZM60.4194 12.8401C60.3187 13.1811 60.111 13.4808 59.8272 13.6951C59.5433 13.9093 59.1981 14.0266 58.8423 14.0299H50.1273C49.7751 14.0284 49.4326 13.9151 49.1492 13.7063C48.8657 13.4972 48.6559 13.2037 48.5504 12.8677L46.6965 6.89167H62.2176L60.4194 12.8401Z" fill="black"/>
</svg>
