<svg width="166" height="54" viewBox="0 0 166 54" fill="none" xmlns="http://www.w3.org/2000/svg">
<path fill-rule="evenodd" clip-rule="evenodd" d="M61 30.5C61 30.2239 61.2239 30 61.5 30L164.5 30C164.776 30 165 30.2239 165 30.5C165 30.7762 164.776 31 164.5 31L61.5 31C61.2239 31 61 30.7761 61 30.5Z" fill="black"/>
<path fill-rule="evenodd" clip-rule="evenodd" d="M56 30.5C56 30.7761 55.7761 31 55.5 31L38.5 31C38.2239 31 38 30.7761 38 30.5C38 30.2239 38.2239 30 38.5 30L55.5 30C55.7761 30 56 30.2239 56 30.5Z" fill="black"/>
<path fill-rule="evenodd" clip-rule="evenodd" d="M35 5.5C35 5.22386 35.2239 5 35.5 5L70.5 5C70.7761 5 71 5.22386 71 5.5C71 5.77615 70.7761 6 70.5 6L35.5 6C35.2239 6 35 5.77614 35 5.5Z" fill="black"/>
<path fill-rule="evenodd" clip-rule="evenodd" d="M76 5.5C76 5.22386 76.2239 5 76.5 5L164.5 5.00001C164.776 5.00001 165 5.22387 165 5.50001C165 5.77615 164.776 6.00001 164.5 6.00001L76.5 6C76.2239 6 76 5.77614 76 5.5Z" fill="black"/>
<path d="M38.3367 41.3037C38.3367 40.3316 38.4853 39.3459 38.7823 38.3468C39.1064 37.3476 39.5924 36.47 40.2405 35.7138C41.6447 34.0126 43.5891 33.1619 46.0734 33.1619C48.5038 33.1619 50.4481 34.0126 51.9064 35.7138C53.1755 37.1991 53.8101 39.0489 53.8101 41.2632C53.8101 43.4505 53.1755 45.3003 51.9064 46.8126C50.4751 48.4868 48.5308 49.324 46.0734 49.324C43.562 49.324 41.6177 48.4868 40.2405 46.8126C38.9713 45.2733 38.3367 43.437 38.3367 41.3037ZM41.0101 41.3037C41.0101 41.9518 41.1047 42.6404 41.2937 43.3695C41.4827 44.0987 41.7798 44.7603 42.1848 45.3543C43.13 46.7316 44.4262 47.4202 46.0734 47.4202C47.7477 47.4202 49.0439 46.7316 49.962 45.3543C50.7182 44.1932 51.0962 42.8295 51.0962 41.2632C51.0962 39.724 50.7182 38.3603 49.962 37.1721C49.0709 35.7949 47.7747 35.1062 46.0734 35.1062C44.3992 35.1062 43.103 35.7949 42.1848 37.1721C41.4017 38.3332 41.0101 39.7105 41.0101 41.3037Z" fill="black"/>
<path d="M65.7244 49.324C63.213 49.324 61.3227 48.3113 60.0535 46.286V47.9062C60.0265 48.2843 59.878 48.5678 59.6079 48.7569C59.3649 48.9189 59.0948 48.9999 58.7978 48.9999C58.5277 48.9999 58.2577 48.9054 57.9877 48.7164C57.7446 48.5273 57.6231 48.2303 57.6231 47.8252V27.8556C57.6231 27.4776 57.7581 27.194 58.0282 27.005C58.2982 26.816 58.5818 26.7214 58.8788 26.7214C59.2029 26.7214 59.4864 26.816 59.7294 27.005C59.9995 27.194 60.1345 27.4776 60.1345 27.8556V36.0379C60.8906 34.6607 62.2003 33.7695 64.0636 33.3645C64.5767 33.2295 65.2518 33.1619 66.0889 33.1619C66.9261 33.1619 67.7632 33.3915 68.6003 33.8505C69.4375 34.2826 70.1126 34.8767 70.6256 35.6328C71.6788 37.0911 72.2054 38.9408 72.2054 41.1822C72.2054 43.4505 71.7058 45.3138 70.7067 46.7721C69.5185 48.4733 67.8577 49.324 65.7244 49.324ZM61.2282 36.8885C60.8501 37.4016 60.5666 38.0227 60.3775 38.7518C60.2155 39.4539 60.1345 40.2235 60.1345 41.0607C60.1345 41.8978 60.2155 42.7079 60.3775 43.4911C60.5396 44.2472 60.8231 44.9223 61.2282 45.5164C62.0923 46.7856 63.429 47.4202 65.2383 47.4202C66.2915 47.4202 67.1826 47.0826 67.9117 46.4075C69.0189 45.3273 69.5725 43.5451 69.5725 41.0607C69.5725 38.3873 68.7623 36.578 67.1421 35.6328C66.548 35.2818 65.8189 35.1062 64.9548 35.1062C64.0906 35.1062 63.348 35.2683 62.7269 35.5923C62.1058 35.9164 61.6062 36.3484 61.2282 36.8885Z" fill="black"/>
<path d="M81.8385 35.1062C79.4892 35.1062 78.3145 35.8489 78.3145 37.3341C78.3145 37.9822 78.6385 38.4953 79.2866 38.8733C79.7727 39.1164 80.7719 39.4269 82.2841 39.805C83.7963 40.156 84.944 40.4531 85.7271 40.6961C86.5103 40.9392 87.1584 41.3847 87.6714 42.0328C88.1845 42.6809 88.4411 43.4505 88.4411 44.3417C88.4411 45.2058 88.252 45.9619 87.874 46.61C87.4959 47.2311 86.9828 47.7442 86.3347 48.1493C85.1195 48.9324 83.5398 49.324 81.5955 49.324C80.1102 49.324 78.7465 49.0809 77.5043 48.5949C76.9373 48.3518 76.4782 48.0818 76.1271 47.7847C75.7761 47.4877 75.6005 47.2176 75.6005 46.9746C75.6005 46.7046 75.6951 46.4885 75.8841 46.3265C76.0731 46.1375 76.2892 46.043 76.5322 46.043C76.7752 46.043 77.0588 46.124 77.3828 46.286C77.7069 46.421 78.0984 46.5695 78.5575 46.7316C79.7997 47.1906 80.8124 47.4202 81.5955 47.4202C82.3786 47.4202 82.9997 47.3662 83.4588 47.2581C83.9178 47.1501 84.3364 46.9746 84.7145 46.7316C85.5246 46.2185 85.9297 45.5164 85.9297 44.6252C85.9297 43.5991 85.214 42.843 83.7828 42.3569C83.2427 42.1678 82.6621 42.0193 82.041 41.9113C81.42 41.7763 80.8124 41.6413 80.2183 41.5062C79.6242 41.3712 79.0571 41.2092 78.517 41.0202C78.0039 40.8311 77.5313 40.5746 77.0993 40.2505C76.2081 39.6024 75.7626 38.6708 75.7626 37.4556C75.7626 35.9704 76.3972 34.8497 77.6664 34.0936C78.7195 33.4725 80.1373 33.1619 81.9195 33.1619C83.6478 33.1619 85.052 33.4455 86.1322 34.0126C87.0233 34.4716 87.4689 34.9577 87.4689 35.4708C87.4689 35.6868 87.3744 35.8759 87.1854 36.0379C86.9963 36.1999 86.8073 36.2809 86.6183 36.2809C86.2672 36.2809 85.9702 36.2134 85.7271 36.0784C85.5111 35.9164 85.2681 35.7814 84.998 35.6733C84.755 35.5383 84.4714 35.4303 84.1474 35.3493C83.5263 35.1873 82.7567 35.1062 81.8385 35.1062Z" fill="black"/>
<path d="M106.462 40.7771C106.462 41.0202 106.381 41.2362 106.219 41.4252C106.057 41.5873 105.801 41.6683 105.45 41.6683H94.2699C94.3239 43.6666 94.8505 45.1113 95.8497 46.0024C96.9028 46.9476 98.118 47.4202 99.4952 47.4202C100.953 47.4202 102.506 46.8801 104.153 45.7999C104.369 45.6379 104.586 45.5569 104.802 45.5569C105.045 45.5569 105.234 45.6379 105.369 45.7999C105.504 45.9619 105.571 46.124 105.571 46.286C105.571 46.61 105.463 46.8801 105.247 47.0961C103.654 48.5814 101.669 49.324 99.2927 49.324C97.0783 49.324 95.2826 48.6084 93.9054 47.1771C92.3931 45.6379 91.637 43.6666 91.637 41.2632C91.637 39.0219 92.2716 37.1451 93.5408 35.6328C94.918 33.9856 96.7543 33.1619 99.0497 33.1619C101.453 33.1619 103.303 33.8911 104.599 35.3493C105.787 36.6995 106.408 38.5088 106.462 40.7771ZM103.991 40.048C103.883 38.5358 103.424 37.3341 102.614 36.443C101.804 35.5518 100.629 35.1062 99.0902 35.1062C97.74 35.1062 96.6328 35.5923 95.7686 36.5645C94.9315 37.5096 94.4589 38.6708 94.3509 40.048H103.991Z" fill="black"/>
<path d="M111.922 33.5265C112.705 33.5265 113.097 33.9181 113.097 34.7012V36.0784C113.772 34.1341 115.19 33.1619 117.35 33.1619C117.755 33.1619 118.066 33.2835 118.282 33.5265C118.498 33.7425 118.606 33.9856 118.606 34.2556C118.606 34.5257 118.498 34.7687 118.282 34.9847C118.093 35.2008 117.715 35.3088 117.147 35.3088C116.58 35.3088 116.027 35.4303 115.487 35.6733C114.974 35.8894 114.542 36.1999 114.19 36.605C113.461 37.4961 113.097 38.6843 113.097 40.1695V47.8252C113.097 48.2033 112.962 48.5003 112.692 48.7164C112.422 48.9054 112.165 48.9999 111.922 48.9999C111.679 48.9999 111.477 48.9864 111.315 48.9594C111.179 48.9054 111.058 48.8379 110.95 48.7569C110.707 48.5408 110.585 48.2303 110.585 47.8252V34.7012C110.585 34.3231 110.707 34.0396 110.95 33.8505C111.22 33.6345 111.544 33.5265 111.922 33.5265Z" fill="black"/>
<path d="M129.826 47.0961C129.556 47.7712 129.259 48.2573 128.935 48.5543C128.638 48.8514 128.206 48.9999 127.639 48.9999C127.099 48.9999 126.667 48.8514 126.343 48.5543C126.019 48.2573 125.721 47.7712 125.451 47.0961L120.429 35.1062C120.375 34.9442 120.348 34.7957 120.348 34.6607C120.348 34.4987 120.375 34.3501 120.429 34.2151C120.51 34.0531 120.618 33.9316 120.753 33.8505C120.996 33.6345 121.266 33.5265 121.563 33.5265C122.13 33.5265 122.521 33.783 122.738 34.2961L127.639 46.124L132.338 34.2961C132.554 33.783 132.932 33.5265 133.472 33.5265C134.066 33.5265 134.471 33.7425 134.687 34.1746C134.741 34.3096 134.768 34.4581 134.768 34.6202C134.768 34.7822 134.741 34.9442 134.687 35.1062L129.826 47.0961Z" fill="black"/>
<path d="M152.172 40.7771C152.172 41.0202 152.091 41.2362 151.929 41.4252C151.767 41.5873 151.511 41.6683 151.16 41.6683H139.98C140.034 43.6666 140.561 45.1113 141.56 46.0024C142.613 46.9476 143.828 47.4202 145.205 47.4202C146.663 47.4202 148.216 46.8801 149.863 45.7999C150.079 45.6379 150.296 45.5569 150.512 45.5569C150.755 45.5569 150.944 45.6379 151.079 45.7999C151.214 45.9619 151.281 46.124 151.281 46.286C151.281 46.61 151.173 46.8801 150.957 47.0961C149.364 48.5814 147.379 49.324 145.003 49.324C142.788 49.324 140.993 48.6084 139.615 47.1771C138.103 45.6379 137.347 43.6666 137.347 41.2632C137.347 39.0219 137.982 37.1451 139.251 35.6328C140.628 33.9856 142.464 33.1619 144.76 33.1619C147.163 33.1619 149.013 33.8911 150.309 35.3493C151.497 36.6995 152.118 38.5088 152.172 40.7771ZM149.701 40.048C149.593 38.5358 149.134 37.3341 148.324 36.443C147.514 35.5518 146.339 35.1062 144.8 35.1062C143.45 35.1062 142.343 35.5923 141.479 36.5645C140.642 37.5096 140.169 38.6708 140.061 40.048H149.701Z" fill="black"/>
<path d="M157.632 33.5265C158.415 33.5265 158.807 33.9181 158.807 34.7012V36.0784C159.482 34.1341 160.9 33.1619 163.06 33.1619C163.465 33.1619 163.776 33.2835 163.992 33.5265C164.208 33.7425 164.316 33.9856 164.316 34.2556C164.316 34.5257 164.208 34.7687 163.992 34.9847C163.803 35.2008 163.425 35.3088 162.857 35.3088C162.29 35.3088 161.737 35.4303 161.197 35.6733C160.684 35.8894 160.252 36.1999 159.9 36.605C159.171 37.4961 158.807 38.6843 158.807 40.1695V47.8252C158.807 48.2033 158.672 48.5003 158.402 48.7164C158.132 48.9054 157.875 48.9999 157.632 48.9999C157.389 48.9999 157.187 48.9864 157.025 48.9594C156.889 48.9054 156.768 48.8379 156.66 48.7569C156.417 48.5408 156.295 48.2303 156.295 47.8252V34.7012C156.295 34.3231 156.417 34.0396 156.66 33.8505C156.93 33.6345 157.254 33.5265 157.632 33.5265Z" fill="black"/>
<path d="M48.6759 21.8252C48.6759 22.2303 48.5409 22.5273 48.2709 22.7164C48.0008 22.9054 47.7443 22.9999 47.5012 22.9999C47.2852 22.9999 47.0962 22.9864 46.9342 22.9594C46.7991 22.9054 46.6776 22.8379 46.5696 22.7569C46.2996 22.5138 46.1645 22.2168 46.1645 21.8657V20.448C45.5164 21.8522 44.3147 22.7569 42.5595 23.1619C42.0464 23.27 41.4658 23.324 40.8177 23.324C40.1696 23.324 39.508 23.216 38.8329 22.9999C38.1848 22.7839 37.6042 22.4328 37.0911 21.9468C35.9839 20.8666 35.4304 19.3138 35.4304 17.2885V8.70118C35.4304 8.29612 35.5519 7.99907 35.7949 7.81004C36.065 7.62101 36.362 7.5265 36.6861 7.5265C37.0101 7.5265 37.2937 7.62101 37.5367 7.81004C37.8067 7.99907 37.9418 8.29612 37.9418 8.70118V17.4506C37.9418 18.9358 38.2253 19.9619 38.7924 20.529C39.3865 21.1231 40.2911 21.4202 41.5063 21.4202C43.5586 21.4202 44.9628 20.5965 45.719 18.9493C45.962 18.3822 46.1105 17.7206 46.1645 16.9645V8.70118C46.1645 8.32312 46.2996 8.03958 46.5696 7.85055C46.8396 7.63451 47.1232 7.5265 47.4202 7.5265C47.7443 7.5265 48.0278 7.62101 48.2709 7.81004C48.5409 7.99907 48.6759 8.29612 48.6759 8.70118V21.8252Z" fill="black"/>
<path d="M53.8129 8.66068C53.8129 8.28262 53.9344 7.99907 54.1774 7.81004C54.4475 7.62101 54.812 7.5265 55.2711 7.5265C56.1352 7.5265 56.4863 8.37713 56.3243 10.0784C56.9453 8.78219 58.1335 7.87755 59.8888 7.36447C60.4289 7.22945 61.023 7.16194 61.6711 7.16194C62.3192 7.16194 62.9673 7.28346 63.6154 7.5265C64.2905 7.74253 64.8846 8.09359 65.3977 8.57966C66.5048 9.63283 67.0584 11.1856 67.0584 13.2379V21.8252C67.0584 22.2303 66.9234 22.5273 66.6534 22.7164C66.3833 22.9054 66.0863 22.9999 65.7622 22.9999C65.4652 22.9999 65.1816 22.9054 64.9116 22.7164C64.6686 22.5003 64.547 22.2033 64.547 21.8252V13.0354C64.547 11.1451 63.8044 9.91637 62.3192 9.34928C61.8871 9.18726 61.3875 9.10625 60.8205 9.10625C60.2804 9.10625 59.7268 9.21426 59.1597 9.4303C58.5926 9.64633 58.1065 9.92987 57.7015 10.2809C56.7833 11.0911 56.3243 12.3332 56.3243 14.0075V21.8252C56.3243 22.2303 56.1892 22.5273 55.9192 22.7164C55.6491 22.9054 55.3521 22.9999 55.028 22.9999C54.704 22.9999 54.4205 22.9054 54.1774 22.7164C53.9344 22.5003 53.8129 22.2033 53.8129 21.8252V8.66068Z" fill="black"/>
<path d="M74.8688 14.6556V21.7442C74.8688 22.1493 74.7338 22.4598 74.4637 22.6759C74.1937 22.8919 73.8966 22.9999 73.5726 22.9999C73.2755 22.9999 72.992 22.9054 72.7219 22.7164C72.4789 22.5003 72.3574 22.1763 72.3574 21.7442V1.97713C72.3574 1.57207 72.4924 1.26152 72.7624 1.04549C73.0325 0.829453 73.2755 0.721436 73.4916 0.721436C73.7346 0.721436 73.9236 0.74844 74.0586 0.802448C74.2207 0.856457 74.3557 0.937469 74.4637 1.04549C74.7338 1.31553 74.8688 1.62608 74.8688 1.97713V13.805L81.9169 7.89106C82.1599 7.64802 82.43 7.5265 82.727 7.5265C83.0241 7.5265 83.2806 7.62101 83.4966 7.81004C83.7127 7.99907 83.8207 8.1881 83.8207 8.37713C83.8207 8.75519 83.7127 9.02523 83.4966 9.18726L77.4612 14.21L84.2662 21.2581C84.4553 21.5012 84.5498 21.7037 84.5498 21.8657C84.5498 22.0278 84.5093 22.1763 84.4283 22.3113C84.3743 22.4463 84.2933 22.5678 84.1852 22.6759C83.9152 22.8919 83.6316 22.9999 83.3346 22.9999C83.0646 22.9999 82.7945 22.8649 82.5245 22.5949L74.8688 14.6556Z" fill="black"/>
<path d="M87.9841 8.66068C87.9841 8.28262 88.1056 7.99907 88.3487 7.81004C88.6187 7.62101 88.9833 7.5265 89.4423 7.5265C90.3065 7.5265 90.6575 8.37713 90.4955 10.0784C91.1166 8.78219 92.3048 7.87755 94.0601 7.36447C94.6001 7.22945 95.1942 7.16194 95.8423 7.16194C96.4904 7.16194 97.1385 7.28346 97.7866 7.5265C98.4617 7.74253 99.0558 8.09359 99.5689 8.57966C100.676 9.63283 101.23 11.1856 101.23 13.2379V21.8252C101.23 22.2303 101.095 22.5273 100.825 22.7164C100.555 22.9054 100.258 22.9999 99.9335 22.9999C99.6364 22.9999 99.3529 22.9054 99.0828 22.7164C98.8398 22.5003 98.7183 22.2033 98.7183 21.8252V13.0354C98.7183 11.1451 97.9757 9.91637 96.4904 9.34928C96.0584 9.18726 95.5588 9.10625 94.9917 9.10625C94.4516 9.10625 93.898 9.21426 93.3309 9.4303C92.7639 9.64633 92.2778 9.92987 91.8727 10.2809C90.9546 11.0911 90.4955 12.3332 90.4955 14.0075V21.8252C90.4955 22.2303 90.3605 22.5273 90.0904 22.7164C89.8204 22.9054 89.5233 22.9999 89.1993 22.9999C88.8752 22.9999 88.5917 22.9054 88.3487 22.7164C88.1056 22.5003 87.9841 22.2033 87.9841 21.8252V8.66068Z" fill="black"/>
<path d="M105.273 15.3037C105.273 14.3316 105.421 13.3459 105.719 12.3468C106.043 11.3476 106.529 10.47 107.177 9.71384C108.581 8.01257 110.525 7.16194 113.01 7.16194C115.44 7.16194 117.384 8.01257 118.843 9.71384C120.112 11.1991 120.746 13.0489 120.746 15.2632C120.746 17.4505 120.112 19.3003 118.843 20.8126C117.411 22.4868 115.467 23.324 113.01 23.324C110.498 23.324 108.554 22.4868 107.177 20.8126C105.908 19.2733 105.273 17.437 105.273 15.3037ZM107.946 15.3037C107.946 15.9518 108.041 16.6404 108.23 17.3695C108.419 18.0987 108.716 18.7603 109.121 19.3543C110.066 20.7316 111.362 21.4202 113.01 21.4202C114.684 21.4202 115.98 20.7316 116.898 19.3543C117.654 18.1932 118.032 16.8295 118.032 15.2632C118.032 13.724 117.654 12.3603 116.898 11.1721C116.007 9.79485 114.711 9.10625 113.01 9.10625C111.335 9.10625 110.039 9.79485 109.121 11.1721C108.338 12.3332 107.946 13.7105 107.946 15.3037Z" fill="black"/>
<path d="M135.901 9.87586L131.567 21.6227C131.27 22.5408 130.676 22.9999 129.785 22.9999C128.948 22.9999 128.407 22.5679 128.164 21.7037L123.466 9.14675C123.412 8.95772 123.385 8.7957 123.385 8.66068C123.385 8.49865 123.412 8.35013 123.466 8.21511C123.547 8.08008 123.641 7.95857 123.749 7.85055C123.965 7.63451 124.222 7.5265 124.519 7.5265C125.167 7.5265 125.572 7.81004 125.734 8.37713L129.947 20.286L134.2 8.74169C134.497 7.93156 135.091 7.5265 135.982 7.5265C136.873 7.5265 137.467 7.93156 137.764 8.74169L141.856 20.1645L145.987 8.37713C146.203 7.81004 146.568 7.5265 147.081 7.5265C147.405 7.5265 147.688 7.63451 147.931 7.85055C148.174 8.06658 148.296 8.29612 148.296 8.53916C148.296 8.75519 148.269 8.95772 148.215 9.14675L143.476 21.7037C143.233 22.5679 142.679 22.9999 141.815 22.9999C140.924 22.9999 140.384 22.5408 140.195 21.6227L135.901 9.87586Z" fill="black"/>
<path d="M151.975 8.66068C151.975 8.28262 152.097 7.99907 152.34 7.81004C152.61 7.62101 152.975 7.5265 153.434 7.5265C154.298 7.5265 154.649 8.37713 154.487 10.0784C155.108 8.78219 156.296 7.87755 158.051 7.36447C158.591 7.22945 159.185 7.16194 159.834 7.16194C160.482 7.16194 161.13 7.28346 161.778 7.5265C162.453 7.74253 163.047 8.09359 163.56 8.57966C164.667 9.63283 165.221 11.1856 165.221 13.2379V21.8252C165.221 22.2303 165.086 22.5273 164.816 22.7164C164.546 22.9054 164.249 22.9999 163.925 22.9999C163.628 22.9999 163.344 22.9054 163.074 22.7164C162.831 22.5003 162.71 22.2033 162.71 21.8252V13.0354C162.71 11.1451 161.967 9.91637 160.482 9.34928C160.05 9.18726 159.55 9.10625 158.983 9.10625C158.443 9.10625 157.889 9.21426 157.322 9.4303C156.755 9.64633 156.269 9.92987 155.864 10.2809C154.946 11.0911 154.487 12.3332 154.487 14.0075V21.8252C154.487 22.2303 154.352 22.5273 154.082 22.7164C153.812 22.9054 153.515 22.9999 153.191 22.9999C152.866 22.9999 152.583 22.9054 152.34 22.7164C152.097 22.5003 151.975 22.2033 151.975 21.8252V8.66068Z" fill="black"/>
</svg>
