<svg width="113" height="52" viewBox="0 0 113 52" fill="none" xmlns="http://www.w3.org/2000/svg">
<path d="M4.05595 20.0002H11.736V19.2802L8.18395 18.9922H7.58395L4.05595 19.2802V20.0002ZM6.79195 20.0002H9.02395C8.97595 17.3362 8.97595 14.6482 8.97595 11.9362V10.6162C8.97595 7.90418 8.97595 5.19218 9.02395 2.52818H6.79195C6.86395 5.21618 6.86395 7.90418 6.86395 10.6162V11.9362C6.86395 14.6482 6.86395 17.3602 6.79195 20.0002ZM0.527954 7.08818H1.53595L2.42395 2.52818L1.39195 3.39218H14.4L13.416 2.52818L14.28 7.08818H15.312L15.096 2.52818H0.719954L0.527954 7.08818Z" fill="#434242"/>
<path d="M17.0683 20.0002H22.9483V19.3522L20.4523 19.0882H19.6843L17.0683 19.3522V20.0002ZM19.0363 20.0002H21.1723C21.1003 18.8482 21.0763 16.1602 21.0763 14.5282V10.4242L21.0523 10.1362V4.64018L21.1243 0.896176L20.7643 0.680176L16.9963 1.40018V2.04818L19.1083 2.16818V14.5282C19.1083 16.1602 19.0843 18.8482 19.0363 20.0002ZM25.2763 20.0002H31.1323V19.3522L28.6123 19.0882H27.8443L25.2763 19.3522V20.0002ZM27.1963 20.0002H29.3563C29.2843 18.8482 29.2603 16.2082 29.2603 14.5282V11.8162C29.2603 8.55218 27.9883 7.28018 25.8763 7.28018C24.1483 7.28018 22.4443 8.16818 20.7643 10.2562H20.2363L20.6923 11.0722C22.4203 9.12818 23.9323 8.57618 25.0603 8.57618C26.4283 8.57618 27.2923 9.39218 27.2923 11.7442V14.5282C27.2923 16.2082 27.2683 18.8482 27.1963 20.0002Z" fill="#434242"/>
<path d="M39.4863 20.3602C41.6463 20.3602 43.2303 19.3762 44.2863 17.7442L43.9023 17.4082C42.9183 18.5602 41.6943 19.1602 40.0143 19.1602C37.3503 19.1602 35.4303 17.4562 35.4303 13.5682C35.4303 10.0882 37.1103 8.04818 39.2223 8.04818C41.1903 8.04818 42.3423 9.51218 42.3423 11.5522C42.3423 12.5362 42.1023 12.9442 41.2623 12.9442H34.2783V13.7122H44.0943C44.1903 13.3282 44.2383 12.8482 44.2383 12.2482C44.2383 9.44018 42.3903 7.28018 39.2703 7.28018C36.1023 7.28018 33.3663 9.80018 33.3663 13.8562C33.3663 18.1762 35.9103 20.3602 39.4863 20.3602Z" fill="#434242"/>
<path d="M58.296 20.4082C61.944 20.4082 64.368 18.5362 64.368 15.5362C64.368 13.0882 63.24 11.7442 59.616 10.2322L58.512 9.77618C56.64 9.00818 55.488 8.00018 55.488 6.20018C55.488 4.08818 57.12 3.00818 59.352 3.00818C60.744 3.00818 61.656 3.36818 62.88 4.37618L62.832 3.58418L61.704 3.05618L62.424 6.84818H63.456L63.576 3.44018C62.376 2.62418 61.08 2.14418 59.232 2.14418C56.136 2.14418 53.64 3.70418 53.64 6.70418C53.64 9.15218 55.152 10.6642 58.008 11.8642L59.016 12.2962C61.632 13.3762 62.472 14.3122 62.472 16.0402C62.472 18.3442 60.744 19.5442 58.152 19.5442C56.448 19.5442 55.416 19.2082 53.88 18.0802L54 18.8482L55.104 19.3762L54.36 15.4162H53.352L53.232 19.0162C54.384 19.7842 56.304 20.4082 58.296 20.4082Z" fill="#434242"/>
<path d="M66.7303 20.0002H72.7783V19.3522L70.1383 19.0882H69.3703L66.7303 19.3522V20.0002ZM68.7463 20.0002H70.8823C70.8103 18.7282 70.7863 16.1602 70.7863 14.4802V4.64018L70.8823 0.896176L70.5223 0.680176L66.7063 1.40018V2.04818L68.8183 2.16818V14.5282C68.8183 16.1602 68.7943 18.7282 68.7463 20.0002ZM69.8263 15.8002L78.2023 7.64018H77.0023L73.4503 11.1922L69.9223 14.7682H69.8263V15.8002ZM76.6903 20.0002H80.2423V19.3522L78.3943 19.1842L73.8823 11.5042L72.4903 12.8242L76.6903 20.0002ZM73.7383 8.33618L76.3783 8.62418L76.8343 8.55218L79.6423 8.33618V7.64018H73.7383V8.33618Z" fill="#434242"/>
<path d="M81.6204 20.0002H87.5484V19.3522L85.0044 19.0882H84.2604L81.6204 19.3522V20.0002ZM83.6124 20.0002H85.7244C85.6764 18.8482 85.6524 16.1602 85.6524 14.5282V10.8802L85.7004 7.54418L85.4124 7.32818L81.4764 8.28818V8.91218L83.6124 9.00818C83.6604 10.2082 83.7084 11.4562 83.7084 13.0882V14.5282C83.7084 16.1602 83.6604 18.8482 83.6124 20.0002ZM84.4764 4.28018C85.2444 4.28018 85.8924 3.75218 85.8924 2.93618C85.8924 2.16818 85.2444 1.59218 84.4764 1.59218C83.7084 1.59218 83.1084 2.16818 83.1084 2.93618C83.1084 3.75218 83.7084 4.28018 84.4764 4.28018Z" fill="#434242"/>
<path d="M89.7811 20.0002H95.6611V19.3522L93.1651 19.0882H92.3971L89.7811 19.3522V20.0002ZM91.7491 20.0002H93.8851C93.8371 18.8482 93.8131 16.1602 93.8131 14.5282V10.3282L93.6451 7.54418L93.3331 7.32818L89.6371 8.31218V8.91218L91.7491 9.03218C91.8211 10.2322 91.8451 11.4322 91.8451 13.0642V14.5282C91.8451 16.1602 91.8211 18.8482 91.7491 20.0002ZM97.9411 20.0002H103.821V19.3522L101.325 19.0882H100.533L97.9411 19.3522V20.0002ZM99.9091 20.0002H102.021C101.973 18.8482 101.925 16.2082 101.925 14.5282V11.7922C101.925 8.55218 100.677 7.28018 98.5891 7.28018C96.9091 7.28018 95.1811 8.12018 93.4291 10.2802H93.1891L93.4051 11.0722C95.1331 9.15218 96.6931 8.57618 97.7731 8.57618C99.1651 8.57618 99.9811 9.39218 99.9811 11.7442V14.5282C99.9811 16.2082 99.9571 18.8482 99.9091 20.0002Z" fill="#434242"/>
<path d="M0.959954 45.0002H6.83995V44.2802L4.10395 43.9922H3.62395L0.959954 44.2802V45.0002ZM1.00795 28.2722L4.07995 28.5362H4.29595V27.5282H1.00795V28.2722ZM3.35995 45.0002H4.31995V35.7122L4.15195 27.5282H3.40795L3.35995 45.0002ZM10.584 45.0002H11.376L17.76 28.9442L18.024 28.3202H18.336V27.5282H17.4L11.424 42.5282L11.28 42.8402H11.784L5.59195 27.5282H3.62395V28.3202H3.76795L10.584 45.0002ZM15.048 45.0002H22.176V44.2802L18.816 43.9922H18.312L15.048 44.2802V45.0002ZM17.448 45.0002H19.68C19.608 42.3602 19.608 39.6482 19.608 36.9362V35.6162C19.608 32.9042 19.608 30.1922 19.68 27.5282H17.616L17.52 37.2002C17.496 39.6482 17.52 42.3362 17.448 45.0002ZM18.552 28.5362H18.816L22.104 28.2722V27.5282H18.552V28.5362Z" fill="#434242"/>
<path d="M27.651 45.3602C29.451 45.3602 30.507 44.5442 31.995 42.9122H32.571L32.355 41.7842C30.507 43.6322 29.571 44.1842 28.515 44.1842C27.171 44.1842 26.259 43.4402 26.259 41.9282C26.259 40.6322 27.051 39.6002 29.067 38.8562C30.147 38.4482 31.539 38.0642 32.811 37.7282V37.1522C31.515 37.4402 29.979 37.8482 28.635 38.2322C25.467 39.1682 24.339 40.3922 24.339 42.2402C24.339 44.2562 25.755 45.3602 27.651 45.3602ZM34.059 45.3362C34.995 45.3362 35.715 44.9522 36.243 44.1362L35.859 43.7522C35.451 44.2082 35.187 44.3522 34.779 44.3522C34.107 44.3522 33.771 43.9202 33.771 42.4322V36.5042C33.771 33.5042 32.427 32.2802 29.643 32.2802C26.931 32.2802 25.131 33.4562 24.675 35.4242C24.795 35.9762 25.179 36.2642 25.731 36.2642C26.307 36.2642 26.739 35.9762 26.859 35.1122L27.267 33.2162L26.211 33.8642C27.291 33.2642 28.179 33.0242 29.115 33.0242C31.011 33.0242 31.851 33.7202 31.851 36.3842V42.6242C31.947 44.3282 32.643 45.3362 34.059 45.3362Z" fill="#434242"/>
<path d="M42.5726 51.2402C47.0126 51.2402 49.4126 49.0562 49.4126 46.8242C49.4126 44.7842 48.0446 43.6082 45.1406 43.6082H41.6126C40.3166 43.6082 39.7886 43.0562 39.7886 42.2402C39.7886 41.4482 40.1486 40.9202 41.0126 40.0562L40.4606 39.7922V40.0082C38.9966 41.1122 38.4206 41.9762 38.4206 43.0082C38.4206 44.0882 39.0206 44.8082 40.2686 45.1202V45.1682C40.7966 45.3362 41.3246 45.3362 42.0686 45.3362H45.0206C47.0606 45.3362 47.6846 46.2482 47.6846 47.3282C47.6846 49.0802 45.9806 50.3762 42.6446 50.3762C40.3886 50.3762 39.1166 49.4882 39.1166 47.7362C39.1166 46.5842 39.6446 45.8882 40.8926 44.9522L40.7726 44.7362C38.6606 45.5762 37.6046 46.6082 37.6046 48.0722C37.6046 49.9202 38.9966 51.2402 42.5726 51.2402ZM42.8846 40.8242C45.7646 40.8242 47.5886 39.1202 47.5886 36.5762C47.5886 35.3042 47.1806 34.2722 46.4126 33.5522L46.3646 33.4802C45.5966 32.7122 44.3966 32.2802 42.8846 32.2802C39.9806 32.2802 38.1806 33.9842 38.1806 36.5762C38.1806 39.1202 39.9566 40.8242 42.8846 40.8242ZM42.8606 40.1282C41.1326 40.1282 40.0286 38.6882 40.0286 36.5762C40.0286 34.4162 41.1566 33.0002 42.9086 33.0002C44.6126 33.0002 45.7646 34.3922 45.7646 36.5522C45.7646 38.6882 44.6126 40.1282 42.8606 40.1282ZM45.6206 33.7922L49.5086 33.9122V32.6162L49.1246 32.3522L45.7646 33.4082H45.6206V33.7922Z" fill="#434242"/>
<path d="M54.6388 45.3602C56.4388 45.3602 57.4948 44.5442 58.9828 42.9122H59.5588L59.3428 41.7842C57.4948 43.6322 56.5588 44.1842 55.5028 44.1842C54.1588 44.1842 53.2468 43.4402 53.2468 41.9282C53.2468 40.6322 54.0388 39.6002 56.0548 38.8562C57.1348 38.4482 58.5268 38.0642 59.7988 37.7282V37.1522C58.5028 37.4402 56.9668 37.8482 55.6228 38.2322C52.4548 39.1682 51.3268 40.3922 51.3268 42.2402C51.3268 44.2562 52.7428 45.3602 54.6388 45.3602ZM61.0468 45.3362C61.9828 45.3362 62.7028 44.9522 63.2308 44.1362L62.8468 43.7522C62.4388 44.2082 62.1748 44.3522 61.7668 44.3522C61.0948 44.3522 60.7588 43.9202 60.7588 42.4322V36.5042C60.7588 33.5042 59.4148 32.2802 56.6308 32.2802C53.9188 32.2802 52.1188 33.4562 51.6628 35.4242C51.7828 35.9762 52.1668 36.2642 52.7188 36.2642C53.2948 36.2642 53.7268 35.9762 53.8468 35.1122L54.2548 33.2162L53.1988 33.8642C54.2788 33.2642 55.1668 33.0242 56.1028 33.0242C57.9988 33.0242 58.8388 33.7202 58.8388 36.3842V42.6242C58.9348 44.3282 59.6308 45.3362 61.0468 45.3362Z" fill="#434242"/>
<path d="M64.7101 45.0002H74.6701L74.9101 41.0402H73.9261L73.0621 44.6882L73.6861 44.2562H66.7741L66.7261 43.7762L66.6061 44.7362L74.5261 33.3122V32.6402H64.9501L64.7581 36.2162L65.7181 36.3122L66.5341 32.9282L65.8381 33.3842H72.4861L72.6781 33.5762V32.9282L64.7101 44.3522V45.0002Z" fill="#434242"/>
<path d="M76.9273 45.0002H82.8553V44.3522L80.3113 44.0882H79.5673L76.9273 44.3522V45.0002ZM78.9193 45.0002H81.0313C80.9833 43.8482 80.9593 41.1602 80.9593 39.5282V35.8802L81.0073 32.5442L80.7193 32.3282L76.7833 33.2882V33.9122L78.9193 34.0082C78.9673 35.2082 79.0153 36.4562 79.0153 38.0882V39.5282C79.0153 41.1602 78.9673 43.8482 78.9193 45.0002ZM79.7833 29.2802C80.5513 29.2802 81.1993 28.7522 81.1993 27.9362C81.1993 27.1682 80.5513 26.5922 79.7833 26.5922C79.0153 26.5922 78.4153 27.1682 78.4153 27.9362C78.4153 28.7522 79.0153 29.2802 79.7833 29.2802Z" fill="#434242"/>
<path d="M85.088 45.0002H90.968V44.3522L88.472 44.0882H87.704L85.088 44.3522V45.0002ZM87.056 45.0002H89.192C89.144 43.8482 89.12 41.1602 89.12 39.5282V35.3282L88.952 32.5442L88.64 32.3282L84.944 33.3122V33.9122L87.056 34.0322C87.128 35.2322 87.152 36.4322 87.152 38.0642V39.5282C87.152 41.1602 87.128 43.8482 87.056 45.0002ZM93.248 45.0002H99.128V44.3522L96.632 44.0882H95.84L93.248 44.3522V45.0002ZM95.216 45.0002H97.328C97.28 43.8482 97.232 41.2082 97.232 39.5282V36.7922C97.232 33.5522 95.984 32.2802 93.896 32.2802C92.216 32.2802 90.488 33.1202 88.736 35.2802H88.496L88.712 36.0722C90.44 34.1522 92 33.5762 93.08 33.5762C94.472 33.5762 95.288 34.3922 95.288 36.7442V39.5282C95.288 41.2082 95.264 43.8482 95.216 45.0002Z" fill="#434242"/>
<path d="M107.483 45.3602C109.643 45.3602 111.227 44.3762 112.283 42.7442L111.899 42.4082C110.915 43.5602 109.691 44.1602 108.011 44.1602C105.347 44.1602 103.427 42.4562 103.427 38.5682C103.427 35.0882 105.107 33.0482 107.219 33.0482C109.187 33.0482 110.339 34.5122 110.339 36.5522C110.339 37.5362 110.099 37.9442 109.259 37.9442H102.275V38.7122H112.091C112.187 38.3282 112.235 37.8482 112.235 37.2482C112.235 34.4402 110.387 32.2802 107.267 32.2802C104.099 32.2802 101.363 34.8002 101.363 38.8562C101.363 43.1762 103.907 45.3602 107.483 45.3602Z" fill="#434242"/>
</svg>
