<svg width="24" height="25" viewBox="0 0 24 25" fill="none" xmlns="http://www.w3.org/2000/svg">
<path d="M20.25 7.25L18.9061 20.1753C18.8631 20.5403 18.6877 20.8767 18.4131 21.1209C18.1385 21.3651 17.7839 21.5 17.4164 21.5H6.58406C6.2166 21.5 5.86193 21.3651 5.58733 21.1209C5.31273 20.8767 5.13732 20.5403 5.09438 20.1753L3.75 7.25" stroke="#3A3A3A" stroke-width="1.5" stroke-linecap="round" stroke-linejoin="round"/>
<path d="M21.75 3.5H2.25C1.83579 3.5 1.5 3.83579 1.5 4.25V6.5C1.5 6.91421 1.83579 7.25 2.25 7.25H21.75C22.1642 7.25 22.5 6.91421 22.5 6.5V4.25C22.5 3.83579 22.1642 3.5 21.75 3.5Z" stroke="#3A3A3A" stroke-width="1.5" stroke-linecap="round" stroke-linejoin="round"/>
<path d="M14.625 11.75L9.375 17" stroke="#3A3A3A" stroke-width="1.5" stroke-linecap="round" stroke-linejoin="round"/>
<path d="M14.625 17L9.375 11.75" stroke="#3A3A3A" stroke-width="1.5" stroke-linecap="round" stroke-linejoin="round"/>
</svg>
